<?xml version="1.0" encoding="UTF-8" standalone="no"?>
<!DOCTYPE svg PUBLIC "-//W3C//DTD SVG 1.1//EN"
         "http://www.w3.org/Graphics/SVG/1.1/DTD/svg11.dtd">

<svg xmlns="http://www.w3.org/2000/svg" width="3.41333in" height="3.41333in" viewBox="0 0 1024 1024">
  <rect x="0" y="0" width="1024" height="1024" fill="#607d8b" stroke="none" />
    <path fill="#fff" stroke="none"
        d="M 145.88,276.70
           C 145.88,276.70 145.88,295.06 145.88,295.06
             145.88,295.06 146.95,295.06 146.95,295.06
             150.55,288.76 156.23,283.41 163.97,279.00
             171.71,274.59 179.99,272.38 188.81,272.38
             205.19,272.38 217.69,277.42 226.33,287.50
             234.97,297.59 239.30,311.09 239.30,328.00
             239.30,328.00 239.30,409.00 239.30,409.00
             239.30,409.00 214.45,409.00 214.45,409.00
             214.45,409.00 214.45,331.78 214.45,331.78
             214.45,307.30 203.57,295.06 181.80,295.06
             171.54,295.06 163.16,299.16 156.67,307.34
             150.19,315.53 146.95,325.03 146.95,335.83
             146.95,335.83 146.95,409.00 146.95,409.00
             146.95,409.00 122.12,409.00 122.12,409.00
             122.12,409.00 122.12,276.70 122.12,276.70
             122.12,276.70 145.88,276.70 145.88,276.70 Z
           M 328.06,413.31
           C 308.08,413.31 291.84,406.66 279.33,393.34
             266.82,380.02 260.56,363.19 260.56,342.84
             260.56,323.59 266.63,307.03 278.78,293.17
             290.94,279.31 306.46,272.38 325.36,272.38
             344.98,272.38 360.69,278.77 372.47,291.55
             384.26,304.33 390.16,321.43 390.16,342.84
             390.16,342.84 389.89,347.44 389.89,347.44
             389.89,347.44 285.41,347.44 285.41,347.44
             286.12,360.76 290.58,371.29 298.77,379.03
             306.95,386.77 316.54,390.64 327.52,390.64
             345.34,390.64 357.40,383.08 363.70,367.95
             363.70,367.95 385.84,377.14 385.84,377.14
             381.52,387.40 374.41,396.00 364.50,402.92
             354.60,409.85 342.46,413.31 328.06,413.31 Z
           M 363.70,326.92
           C 363.16,319.36 359.69,312.16 353.30,305.33
             346.91,298.48 337.41,295.06 324.81,295.06
             315.63,295.06 307.67,297.95 300.92,303.70
             294.17,309.46 289.54,317.20 287.02,326.92
             287.02,326.92 363.70,326.92 363.70,326.92 Z
           M 471.62,471.64
           C 455.97,471.64 443.19,467.72 433.28,459.89
             423.38,452.07 416.27,443.11 411.95,433.03
             411.95,433.03 434.64,423.58 434.64,423.58
             437.16,430.77 441.80,436.80 448.55,441.66
             455.30,446.52 462.99,448.95 471.62,448.95
             485.31,448.95 496.07,444.86 503.89,436.67
             511.72,428.48 515.64,417.37 515.64,403.33
             515.64,403.33 515.64,390.64 515.64,390.64
             515.64,390.64 514.56,390.64 514.56,390.64
             510.24,397.12 504.11,402.52 496.19,406.84
             488.27,411.16 479.36,413.31 469.47,413.31
             452.36,413.31 437.60,406.56 425.19,393.06
             412.77,379.56 406.56,362.82 406.56,342.84
             406.56,322.87 412.77,306.12 425.19,292.62
             437.60,279.12 452.36,272.38 469.47,272.38
             479.36,272.38 488.27,274.54 496.19,278.86
             504.11,283.18 510.24,288.59 514.56,295.06
             514.56,295.06 515.64,295.06 515.64,295.06
             515.64,295.06 515.64,276.70 515.64,276.70
             515.64,276.70 539.41,276.70 539.41,276.70
             539.41,276.70 539.41,402.25 539.41,402.25
             539.41,424.93 532.83,442.16 519.69,453.95
             506.55,465.74 490.53,471.64 471.62,471.64 Z
           M 473.52,390.64
           C 485.21,390.64 495.16,386.32 503.34,377.69
             511.54,369.04 515.64,357.43 515.64,342.86
             515.64,328.28 511.54,316.67 503.34,308.03
             495.16,299.39 485.21,295.06 473.52,295.06
             461.99,295.06 452.09,299.43 443.81,308.16
             435.54,316.89 431.41,328.45 431.41,342.86
             431.41,357.26 435.54,368.82 443.81,377.55
             452.09,386.28 461.99,390.64 473.52,390.64 Z
           M 618.27,413.31
           C 603.50,413.31 591.30,409.71 581.67,402.52
             572.05,395.32 564.98,386.32 560.48,375.52
             560.48,375.52 582.62,366.34 582.62,366.34
             589.64,382.91 601.61,391.19 618.53,391.19
             626.27,391.19 632.61,389.48 637.56,386.06
             642.51,382.64 644.98,378.13 644.98,372.55
             644.98,363.91 638.96,358.06 626.91,355.00
             626.91,355.00 600.17,348.52 600.17,348.52
             591.71,346.36 583.70,342.27 576.14,336.23
             568.58,330.20 564.80,322.06 564.80,311.80
             564.80,300.10 569.97,290.61 580.31,283.31
             590.66,276.02 602.96,272.38 617.19,272.38
             628.88,272.38 639.32,275.03 648.50,280.34
             657.68,285.66 664.24,293.26 668.20,303.16
             668.20,303.16 646.61,312.06 646.61,312.06
             641.74,300.37 631.66,294.52 616.38,294.52
             608.99,294.52 602.77,296.05 597.73,299.11
             592.70,302.17 590.19,306.31 590.19,311.53
             590.19,319.09 596.04,324.23 607.73,326.92
             607.73,326.92 633.92,333.12 633.92,333.12
             646.34,336.01 655.52,340.96 661.45,347.98
             667.40,355.01 670.38,362.92 670.38,371.73
             670.38,383.62 665.51,393.52 655.78,401.44
             646.06,409.35 633.55,413.31 618.27,413.31 Z
           M 753.06,413.31
           C 733.08,413.31 716.84,406.66 704.33,393.34
             691.82,380.02 685.56,363.19 685.56,342.84
             685.56,323.59 691.63,307.03 703.78,293.17
             715.94,279.31 731.46,272.38 750.36,272.38
             769.98,272.38 785.69,278.77 797.47,291.55
             809.26,304.33 815.16,321.43 815.16,342.84
             815.16,342.84 814.89,347.44 814.89,347.44
             814.89,347.44 710.41,347.44 710.41,347.44
             711.12,360.76 715.58,371.29 723.77,379.03
             731.95,386.77 741.54,390.64 752.52,390.64
             770.34,390.64 782.40,383.08 788.70,367.95
             788.70,367.95 810.84,377.14 810.84,377.14
             806.52,387.40 799.41,396.00 789.50,402.92
             779.60,409.85 767.46,413.31 753.06,413.31 Z
           M 788.70,326.92
           C 788.16,319.36 784.69,312.16 778.30,305.33
             771.91,298.48 762.41,295.06 749.81,295.06
             740.63,295.06 732.67,297.95 725.92,303.70
             719.17,309.46 714.54,317.20 712.02,326.92
             712.02,326.92 788.70,326.92 788.70,326.92 Z
           M 891.36,411.16
           C 877.49,411.16 866.91,407.47 859.62,400.09
             852.34,392.71 848.70,382.27 848.70,368.77
             848.70,368.77 848.70,299.38 848.70,299.38
             848.70,299.38 825.48,299.38 825.48,299.38
             825.48,299.38 825.48,276.70 825.48,276.70
             825.48,276.70 848.70,276.70 848.70,276.70
             848.70,276.70 848.70,236.20 848.70,236.20
             848.70,236.20 873.55,236.20 873.55,236.20
             873.55,236.20 873.55,276.70 873.55,276.70
             873.55,276.70 905.94,276.70 905.94,276.70
             905.94,276.70 905.94,299.38 905.94,299.38
             905.94,299.38 873.55,299.38 873.55,299.38
             873.55,299.38 873.55,366.88 873.55,366.88
             873.55,381.28 879.48,388.48 891.36,388.48
             895.86,388.48 899.64,387.76 902.70,386.31
             902.70,386.31 911.34,407.66 911.34,407.66
             905.94,409.99 899.27,411.16 891.36,411.16 Z" />
  <g fill="#a4ca39" stroke="none">
    <rect x="-120" y="480" width="54" height="240" rx="27" ry="27" transform="rotate(-30)"/>
    <rect x="952" y="-32" width="54" height="240" rx="27" ry="27" transform="rotate(30)"/>
    <circle cx="512" cy="1124" r="542" />
  </g>
  <g fill="#607d8b" stroke="none">
    <circle cx="308" cy="820" r="42" />
    <circle cx="716" cy="820" r="42" />
  </g>
</svg>